<?xml version="1.0" standalone="no"?><!DOCTYPE svg PUBLIC "-//W3C//DTD SVG 1.1//EN" "http://www.w3.org/Graphics/SVG/1.1/DTD/svg11.dtd"><svg t="1775125937837" class="icon" viewBox="0 0 1024 1024" version="1.1" xmlns="http://www.w3.org/2000/svg" p-id="7768" xmlns:xlink="http://www.w3.org/1999/xlink" width="200" height="200"><path d="M459.712 192c181.824 0 331.744 123.296 331.744 279.328l-0.224-10.624a73.472 73.472 0 0 0-75.84-16.288c-16.32-99.424-123.392-178.624-255.616-178.624-143.904 0-258.016 93.824-258.016 205.6 0 57.504 39.2 121.152 98.72 163.2 5.056 3.616 9.12 8.32 11.808 13.824 4.544 9.28 6.176 22.592 4.992 42.88l-1.408 16.544c-0.608 6.016-1.44 12.48-2.4 19.424l-0.864 5.504 42.432-21.152 22.848-11.072 17.984-8.32 9.664-4.096 8-3.136 6.592-2.208 5.408-1.344c1.408-0.32 2.88-0.512 4.32-0.64l88.896-0.128 5.184-0.064c-3.904 27.84 8.384 55.456 31.68 71.2a252.48 252.48 0 0 1-36.864 2.56h-81.536l-9.28 4.096-26.496 12.576-35.2 17.344-85.44 43.296a36.832 36.832 0 0 1-53.12-39.488l2.656-14.304 4.48-26.112 3.68-22.752 2.752-19.424 1.504-13.28 1.024-12.224-6.4-5.056c-62.912-51.84-105.056-123.904-109.12-196.32L128 471.36C128 315.296 277.984 192 459.712 192z" fill="#1296db" p-id="7769"></path><path d="M825.984 723.52c-19.424 15.488-40.096 33.12-45.12 27.296-7.712-6.016 9.92-24.896 21.472-39.872 9.664-14.784 20.576-29.888 20.576-48.32a44.256 44.256 0 1 1 44.48 44.16c-14.336 0-28.768 8.576-41.344 16.736h-0.064zM738.208 579.904a49.28 49.28 0 0 1-43.424-28.896c-6.848-16.544-5.376-34.528 9.664-48.64 15.168-14.016 34.144-14.528 50.656-7.68 16.576 6.848 27.36 23.04 27.36 40.96 0 15.36 8.48 28.736 16.512 41.44 19.328 23.584 34.656 39.104 27.072 45.376-3.36 4.064-24.416-10.4-39.584-21.76-14.784-9.76-31.36-20.768-48.32-20.768l0.064-0.032z m-79.68 30.72c15.68-12.096 35.744-28.864 41.824-24.096 5.152 3.296-10.016 25.056-21.504 39.872-9.728 14.72-17.472 20.672-20.352 46.336-2.816 25.728-20.384 46.912-44.864 46.944a45.76 45.76 0 0 1-45.6-44.64c-0.064-24.416 22.272-44.992 45.6-44.992 23.36 0 32.288-11.296 44.928-19.424h-0.064z m83.04 147.424c17.984 0 35.68 9.664 42.56 26.176a45.728 45.728 0 0 1-9.76 49.088 46.72 46.72 0 0 1-49.696 9.952 44.256 44.256 0 0 1-27.36-40.96 120.096 120.096 0 0 0-16.384-41.536c-11.936-16.768-34.112-37.376-26.88-45.504 4.352-7.872 24.64 8.128 39.52 22.08 14.592 9.536 28.864 17.28 48 20.704z" fill="#1296db" p-id="7770"></path></svg>